<?xml version="1.0" encoding="utf-8"?>
<!-- Generator: Adobe Illustrator 17.0.0, SVG Export Plug-In . SVG Version: 6.00 Build 0)  -->
<!DOCTYPE svg PUBLIC "-//W3C//DTD SVG 1.1//EN" "http://www.w3.org/Graphics/SVG/1.1/DTD/svg11.dtd">
<svg version="1.1" id="Layer_1" xmlns="http://www.w3.org/2000/svg" xmlns:xlink="http://www.w3.org/1999/xlink" x="0px" y="0px"
	 width="135px" height="43px" viewBox="0 0 135 43" enable-background="new 0 0 135 43" xml:space="preserve">
<g>
	<path fill="#363636" d="M36.786-0.146h0.033c2.248,0.044,4.492,0.706,6.334,2.015c0.931,0.625,1.723,1.425,2.527,2.2
		c1.446-1.684,3.335-3.009,5.475-3.635c1.028-0.31,2.093-0.477,3.161-0.58h0.813c2.161,0.346,4.314,1.021,6.117,2.292
		c0.824,0.56,1.528,1.266,2.208,1.988c0.678-0.777,1.419-1.506,2.263-2.099c2.024-1.453,4.533-2.156,7.011-2.147
		c2.37,0.142,4.722,0.95,6.611,2.406c2.245,1.709,3.822,4.254,4.39,7.014c0.23,1.045,0.265,2.119,0.27,3.185
		c0.003,2.414,0.005,4.828,0.002,7.242c-0.008,0.8,0.077,1.646-0.289,2.387c-0.453,1.021-1.617,1.67-2.724,1.494
		c-1.158-0.163-2.122-1.196-2.196-2.364c0.108-3.064,0.018-6.135,0.057-9.202c0.042-2.455-1.373-4.902-3.616-5.953
		c-1.69-0.818-3.759-0.845-5.442,0.003c-1.876,0.923-3.22,2.816-3.516,4.882c-0.14,0.851-0.017,1.712-0.024,2.567
		c-0.008,2.464,0.009,4.926-0.009,7.388c0.009,1.313-1.028,2.61-2.378,2.688c-1.42,0.161-2.801-1.044-2.82-2.476
		c-0.027-2.983-0.128-5.969,0.023-8.951c0.089-1.638-0.535-3.272-1.586-4.518c-1.265-1.531-3.29-2.361-5.264-2.188
		c-3.037,0.2-5.656,2.92-5.757,5.959c-0.065,3.161-0.041,6.322-0.044,9.481c0.006,0.675-0.187,1.361-0.613,1.89
		c-0.643,0.843-1.858,1.169-2.84,0.777c-1.062-0.405-1.762-1.527-1.733-2.653c-0.011-2.965-0.047-5.932,0.018-8.897
		c0.099-2.634-1.61-5.249-4.09-6.165c-1.745-0.669-3.78-0.454-5.37,0.516c-1.78,1.044-2.988,2.982-3.165,5.034
		c-0.164,1.774,0.468,3.59,1.661,4.908c1.152,1.295,2.863,2.095,4.605,2.057c0.878,0.023,1.821-0.194,2.637,0.232
		c1.147,0.551,1.723,2.004,1.298,3.198c-0.288,0.944-1.141,1.662-2.117,1.799c-2.68,0.42-5.546-0.005-7.862-1.464
		c-2.108-1.331-3.79-3.316-4.825-5.578c-1.003-2.214-1.191-4.752-0.658-7.114C25.89,7.078,27,4.756,28.807,3.063
		C30.944,1.047,33.882,0.011,36.786-0.146z"/>
	<path fill="#363636" d="M89.074,0.101c0.363-0.111,0.745-0.126,1.123-0.126c5.469,0.006,10.938-0.003,16.408,0.005
		c0.762-0.003,1.557,0.235,2.096,0.797c0.864,0.89,1.004,2.391,0.291,3.412c-0.482,0.733-1.352,1.169-2.226,1.134
		c-5.618,0-11.238,0.003-16.856-0.002c-0.831,0.006-1.67-0.364-2.173-1.035c-0.634-0.813-0.708-2-0.223-2.903
		C87.836,0.77,88.413,0.301,89.074,0.101z"/>
	<path fill="#363636" d="M112.621,1.057c0.486-0.667,1.297-1.077,2.122-1.077c2.561-0.012,5.121,0.005,7.681-0.009
		c3.491-0.211,6.977,1.417,9.205,4.084c1.373,1.623,2.29,3.623,2.638,5.721c0.485,2.215,0.107,4.542-0.693,6.636
		c-1.131,2.84-3.399,5.218-6.209,6.428c-1.456,0.641-3.048,0.922-4.632,0.946c-2.712,0.018-5.423,0.009-8.133,0.009
		c-0.98,0.018-1.926-0.592-2.328-1.482c-0.328-0.66-0.25-1.415-0.257-2.128c0.015-2.909,0.011-5.817,0.009-8.726
		c-0.002-0.583-0.03-1.19,0.211-1.735c0.339-0.842,1.144-1.465,2.04-1.59c1.036-0.17,2.113,0.414,2.605,1.327
		c0.316,0.556,0.369,1.212,0.366,1.84c0.006,2.375,0,4.749,0.003,7.124c1.923,0.056,3.849,0.027,5.773,0.014
		c1.843-0.011,3.661-0.882,4.808-2.325c1.345-1.655,1.845-3.978,1.208-6.025c-0.714-2.513-3.069-4.509-5.713-4.588
		c-2.911-0.066-5.823-0.005-8.734-0.048c-0.813-0.047-1.589-0.492-2.042-1.167C111.895,3.337,111.928,1.977,112.621,1.057z"/>
	<path fill="#363636" d="M0.724,0.892c0.738-0.788,2.012-1.004,2.965-0.494c0.854,0.434,1.388,1.373,1.39,2.322
		c0.026,2.179,0.006,4.358,0.014,6.535c4.125,0.002,8.249,0.002,12.375,0.002c0.002-2.183-0.006-4.365,0.011-6.547
		c-0.006-0.884,0.462-1.76,1.218-2.224c0.941-0.592,2.272-0.438,3.063,0.342c0.551,0.523,0.821,1.291,0.8,2.042
		c-0.006,5.922,0.017,11.845,0.009,17.767c0,0.548-0.065,1.111-0.315,1.608c-0.483,1.013-1.724,1.551-2.804,1.307
		c-1.108-0.248-1.997-1.306-1.965-2.458c-0.023-2.185-0.017-4.371-0.017-6.556c-4.125-0.002-8.251-0.003-12.375,0
		c-0.006,2.135,0.011,4.271-0.011,6.406c0.059,1.244-0.864,2.424-2.098,2.628C1.574,23.884,0.13,22.707,0,21.3V2.613
		C0.057,1.985,0.277,1.351,0.724,0.892z"/>
	<path fill="#363636" d="M89.231,18.48c0.416-0.101,0.846-0.107,1.272-0.105c5.368,0.009,10.74-0.012,16.108,0.011
		c0.968-0.017,1.962,0.429,2.462,1.284c0.771,1.178,0.357,2.92-0.834,3.655c-0.435,0.28-0.955,0.405-1.468,0.399
		c-5.325-0.009-10.649,0.015-15.974,0.008c-0.667-0.008-1.366,0.065-1.994-0.212c-1.013-0.411-1.678-1.504-1.605-2.592
		C87.232,19.777,88.11,18.73,89.231,18.48z"/>
	<g>
		<path fill="#666666" d="M63.122,30.82c0.455-0.134,0.914-0.251,1.378-0.357c0.191,1.473,0.283,2.959,0.251,4.444
			c0.657-0.548,1.396-1.056,2.263-1.182c0.885-0.17,1.888,0.251,2.271,1.095c0.446,1.015,0.053,2.265-0.777,2.964
			c-0.876,0.726-2.033,1.016-3.149,1.071c-1.256,0.003-2.512,0.005-3.768-0.002c-0.599-0.002-1.167-0.3-1.553-0.748
			c-1.086,1.027-2.682,1.271-4.115,1.074c0.093-0.432,0.233-0.852,0.358-1.275c0.535,0.072,1.078,0.066,1.604-0.068
			c-0.529-1.967-1.581-3.75-2.823-5.347c0.315-0.316,0.631-0.631,0.947-0.947c1.211,1.787,2.295,3.698,2.857,5.798
			c0.411-0.259,0.86-0.673,0.757-1.212c-0.131-1.754-0.363-3.498-0.646-5.231c0.44-0.075,0.881-0.155,1.316-0.253
			c0.267,2.08,0.395,4.174,0.595,6.26c0.154,0.751,1.089,0.611,1.664,0.641c0.223-0.402,0.536-0.754,0.735-1.169
			C63.523,34.528,63.334,32.661,63.122,30.82z M66.488,35.208c-1.086,0.428-1.867,1.37-2.483,2.328
			c0.795,0.017,1.595-0.021,2.382-0.137c0.58-0.113,1.203-0.259,1.631-0.697c0.301-0.298,0.455-0.792,0.259-1.187
			C67.861,34.983,67.069,34.969,66.488,35.208z"/>
	</g>
	<path fill="#666666" d="M84.437,30.405c0.28,0.271,0.557,0.548,0.833,0.825c-0.276,0.277-0.551,0.553-0.827,0.827
		c-0.279-0.274-0.554-0.55-0.828-0.827C83.889,30.956,84.163,30.682,84.437,30.405z"/>
	<path fill="#666666" d="M20.251,31c0.446-0.154,0.894-0.3,1.34-0.453c0.381,2.682,0.295,5.395,0.2,8.092
		c-0.459,0.072-0.919,0.142-1.378,0.209C20.621,36.234,20.522,33.605,20.251,31z"/>
	<path fill="#666666" d="M31.394,31c0.446-0.154,0.894-0.301,1.34-0.453c0.379,2.683,0.295,5.395,0.2,8.092
		c-0.459,0.072-0.919,0.142-1.378,0.209C31.764,36.235,31.665,33.605,31.394,31z"/>
	<path fill="#666666" d="M70.094,31c0.446-0.154,0.893-0.301,1.34-0.453c0.381,2.682,0.295,5.395,0.2,8.092
		c-0.459,0.072-0.919,0.142-1.378,0.209C70.465,36.234,70.365,33.605,70.094,31z"/>
	<path fill="#666666" d="M92.381,31c0.446-0.154,0.893-0.301,1.34-0.453c0.381,2.682,0.295,5.395,0.2,8.092
		c-0.459,0.072-0.919,0.142-1.378,0.209C92.751,36.234,92.652,33.605,92.381,31z"/>
	<path fill="#666666" d="M9.238,31.034c0.435-0.133,0.87-0.262,1.306-0.395c0.297,2.116,0.196,4.257,0.223,6.385
		c-0.032,0.446,0.524,0.483,0.843,0.498c0.733,0.003,1.56,0.066,2.173-0.416c0.503-0.565,0.172-1.366-0.009-1.994
		c0.432-0.116,0.861-0.238,1.291-0.364c0.176,0.66,0.205,1.343,0.295,2.016c0.036,0.328,0.209,0.742,0.595,0.753
		c0.586,0.02,1.188,0.072,1.759-0.095c0.348-0.096,0.632-0.435,0.583-0.809c-0.111-0.727-0.385-1.419-0.702-2.078
		c0.405-0.196,0.806-0.399,1.211-0.596c0.417,1.024,0.849,2.126,0.649,3.253c-0.185,0.982-1.167,1.62-2.125,1.652
		c-0.928-0.008-2.039,0.212-2.735-0.568c-0.946,0.571-2.093,0.601-3.165,0.578c-0.837-0.006-1.742-0.494-1.944-1.357
		c-0.146-0.741-0.044-1.503-0.038-2.253C9.396,33.841,9.461,32.427,9.238,31.034z"/>
	<path fill="#666666" d="M46.421,31.061c0.425-0.166,0.866-0.28,1.298-0.425c0.343,2.114,0.202,4.269,0.242,6.401
		c-0.029,0.223,0.167,0.385,0.37,0.423c0.559,0.104,1.134,0.075,1.7,0.059c-0.887-1.137-0.432-3.015,0.89-3.603
		c1.178-0.574,2.555-0.012,3.427,0.852c-0.283,0.334-0.56,0.675-0.827,1.024c-0.401-0.373-0.869-0.729-1.432-0.782
		c-0.517-0.072-1.072,0.298-1.152,0.822c-0.188,0.678,0.381,1.334,1.03,1.452c0.747,0.139,1.503-0.093,2.238-0.211
		c0.072,0.432,0.122,0.867,0.166,1.304c-1.923,0.488-3.923,0.513-5.892,0.464c-0.794-0.041-1.611-0.535-1.799-1.345
		c-0.155-0.795-0.03-1.61-0.038-2.412C46.579,33.743,46.669,32.39,46.421,31.061z"/>
	<path fill="#666666" d="M123.978,31.048c0.425-0.146,0.858-0.267,1.284-0.413c0.372,2.143,0.19,4.334,0.259,6.498
		c0.002,0.188,0.205,0.289,0.364,0.331c2.334,0.351,4.67-0.354,6.757-1.361c-0.929-0.206-1.723-0.801-2.656-0.973
		c-0.693-0.13-1.156,0.48-1.491,0.985c-0.352-0.244-0.711-0.474-1.072-0.697c0.509-0.84,1.327-1.634,2.37-1.641
		c1.715,0.047,3.055,1.444,4.78,1.479c-0.038,0.449-0.068,0.899-0.108,1.349c-2.183,1.056-4.436,2.236-6.924,2.251
		c-0.967-0.023-2.119,0.172-2.869-0.59c-0.723-0.702-0.482-1.799-0.488-2.7C124.156,34.06,124.219,32.542,123.978,31.048z"/>
	<path fill="#666666" d="M16.829,32.21c0.331-0.331,0.663-0.663,0.995-0.994c0.333,0.331,0.666,0.664,0.998,0.997
		c-0.331,0.331-0.664,0.663-0.991,0.997C17.496,32.877,17.164,32.543,16.829,32.21z"/>
	<path fill="#666666" d="M82.561,32.736c0.3-0.301,0.601-0.601,0.902-0.902c0.297,0.294,0.593,0.587,0.881,0.89
		c-0.303,0.297-0.602,0.596-0.9,0.897C83.148,33.326,82.855,33.033,82.561,32.736z"/>
	<path fill="#666666" d="M84.519,32.736c0.3-0.3,0.601-0.601,0.902-0.902c0.301,0.3,0.601,0.601,0.904,0.902
		c-0.3,0.304-0.602,0.607-0.908,0.904C85.118,33.337,84.817,33.037,84.519,32.736z"/>
	<path fill="#666666" d="M89.337,33.188c0.331-0.331,0.663-0.663,0.994-0.994c0.333,0.334,0.667,0.667,1,1.003
		c-0.336,0.327-0.666,0.66-0.997,0.991C90.002,33.855,89.669,33.522,89.337,33.188z"/>
	<g>
		<path fill="#666666" d="M113.509,33.033c0.41-0.17,0.821-0.34,1.232-0.51c0.617,1.504,1.229,3.015,1.875,4.509
			c0.259,0.613,1.123,0.595,1.64,0.355c1.238-0.613,1.182-2.378,2.423-2.983c0.976-0.465,2.143,0.244,2.444,1.221
			c0.366,1.044,0.224,2.522-0.881,3.057c-0.937,0.382-1.9-0.164-2.676-0.658c-0.934,1.004-2.703,1.17-3.731,0.227
			c-0.672,0.331-1.381,0.632-2.144,0.61c-0.953,0.072-1.816-0.446-2.471-1.089c0.254-0.358,0.507-0.718,0.756-1.08
			c0.495,0.387,1.041,0.827,1.706,0.813c0.533,0.023,1.033-0.193,1.491-0.446C114.622,35.714,114.053,34.379,113.509,33.033z
			 M120.343,36.933c0.501,0.28,1.042,0.578,1.632,0.566c0.297-0.178,0.349-0.601,0.251-0.907c-0.152-0.471-0.462-1-1.006-1.057
			C120.754,35.856,120.609,36.461,120.343,36.933z"/>
	</g>
	<path fill="#666666" d="M39.208,33.588c0.306-0.303,0.598-0.619,0.899-0.926c0.289,0.307,0.587,0.607,0.888,0.902
		c-0.295,0.295-0.589,0.59-0.884,0.884C39.821,34.15,39.522,33.859,39.208,33.588z"/>
	<path fill="#666666" d="M41.183,33.564c0.295-0.291,0.589-0.584,0.878-0.881c0.3,0.289,0.595,0.584,0.888,0.881
		c-0.295,0.292-0.574,0.599-0.854,0.905C41.789,34.171,41.486,33.867,41.183,33.564z"/>
	<path fill="#666666" d="M96.061,33.846c0.257-0.378,0.512-0.759,0.762-1.143c1.08,0.753,2.072,1.703,2.652,2.903
		c0.294,0.613,0.449,1.351,0.182,2.003c-0.283,0.727-1.028,1.191-1.784,1.278c-1.143,0.151-2.295-0.221-3.274-0.794
		c0.191-0.42,0.369-0.846,0.551-1.269c0.953,0.513,2.128,0.998,3.194,0.538c0.452-0.239,0.268-0.816,0.057-1.161
		C97.815,35.251,96.966,34.486,96.061,33.846z"/>
	<path fill="#666666" d="M86.3,34.353c0.39-0.188,0.771-0.392,1.141-0.617c0.688,1.176,1.211,2.701,0.617,4.021
		c-0.517,1.16-2.418,1.566-3.131,0.385c-0.48,0.807-1.577,0.849-2.367,0.532c0.065,0.831-0.194,1.699-0.782,2.304
		c-0.983,1.069-2.54,1.419-3.942,1.275c-1.248-0.136-2.387-1.004-2.781-2.208c-0.494-1.56,0.117-3.227,0.935-4.564
		c0.363,0.262,0.723,0.527,1.084,0.791c-0.535,0.854-1.021,1.83-0.941,2.866c0.089,1.062,1.14,1.843,2.173,1.79
		c1.036,0.068,2.263-0.28,2.736-1.292c0.515-1.327-0.114-2.718-0.676-3.918c0.392-0.239,0.782-0.48,1.172-0.723
		c0.289,0.773,0.551,1.599,1.122,2.217c0.348,0.428,1.181,0.416,1.391-0.14c0.221-0.604,0.09-1.263,0.125-1.891
		c0.422-0.05,0.843-0.099,1.268-0.143c0.011,0.763,0.048,1.587,0.456,2.256c0.276,0.465,1.033,0.242,1.134-0.253
		C87.333,36.08,86.684,35.184,86.3,34.353z"/>
	<path fill="#666666" d="M28.113,34.528c0.407-0.197,0.818-0.385,1.22-0.592c0.441,0.928,0.792,1.949,0.733,2.988
		c-0.054,0.935-0.84,1.705-1.745,1.857c-0.797,0.11-1.605,0.077-2.406,0.069c-0.09-0.038-0.271-0.116-0.36-0.155
		c-0.357,1.92-2.024,3.204-3.658,4.058c-0.218-0.389-0.416-0.788-0.602-1.19c1.172-0.645,2.465-1.409,2.938-2.738
		c0.244-0.983-0.345-1.911-0.607-2.829c0.416-0.169,0.827-0.351,1.245-0.515c0.28,0.706,0.461,1.614,1.196,1.989
		c0.714,0.123,1.462,0.077,2.167-0.087c0.288-0.086,0.676-0.264,0.645-0.623C28.864,35.955,28.423,35.246,28.113,34.528z"/>
	<path fill="#666666" d="M43.787,34.659c0.379-0.235,0.751-0.48,1.12-0.732c0.456,0.885,0.896,1.816,1.024,2.811
		c0.096,0.673-0.518,1.137-1.071,1.36c-1.944,0.804-4.132,0.946-6.188,0.545c-0.947-0.2-1.965-0.657-2.376-1.596
		c-0.443-0.964-0.03-2.045,0.488-2.888c0.328,0.253,0.641,0.526,0.964,0.788c-0.244,0.491-0.608,1.021-0.482,1.595
		c0.477,0.691,1.405,0.763,2.165,0.893c1.799,0.134,3.712,0.164,5.389-0.596C44.582,36.064,44.216,35.342,43.787,34.659z"/>
	<path fill="#666666" d="M106.072,34.529c0.407-0.199,0.821-0.381,1.221-0.592c0.455,0.913,0.779,1.932,0.742,2.96
		c-0.047,0.941-0.825,1.721-1.735,1.878c-0.8,0.12-1.61,0.071-2.415,0.08c-0.232,0.024-0.432-0.116-0.638-0.191
		c-0.312,1.941-2.015,3.216-3.635,4.09c-0.238-0.381-0.428-0.786-0.614-1.193c1.167-0.641,2.458-1.405,2.933-2.727
		c0.251-0.986-0.342-1.917-0.604-2.839c0.416-0.169,0.827-0.351,1.245-0.515c0.28,0.706,0.461,1.611,1.194,1.988
		c0.765,0.119,1.563,0.093,2.325-0.06c0.324-0.081,0.782-0.248,0.759-0.66C106.811,35.952,106.402,35.237,106.072,34.529z"/>
	<path fill="#666666" d="M3.728,35.373c0.333-0.331,0.663-0.663,0.995-0.994c0.333,0.331,0.666,0.664,0.998,0.997
		c-0.331,0.333-0.664,0.664-0.995,0.997C4.396,36.038,4.063,35.705,3.728,35.373z"/>
	<path fill="#666666" d="M89.788,35.823c0.437-0.145,0.875-0.285,1.316-0.423c0.404,1.334,0.961,2.848,0.301,4.194
		c-0.682,1.39-1.995,2.348-3.338,3.042c-0.2-0.395-0.396-0.789-0.593-1.184c1.099-0.596,2.257-1.327,2.777-2.519
		C90.642,37.887,90.077,36.82,89.788,35.823z"/>
	<path fill="#666666" d="M6.377,36.139c0.405-0.238,0.818-0.461,1.227-0.691c0.554,1.354,1.143,2.845,0.795,4.326
		c-0.304,1.346-1.483,2.409-2.846,2.604c-0.977,0.113-2.012,0.09-2.929-0.307c-1.092-0.52-1.756-1.718-1.765-2.909
		c-0.059-1.191,0.319-2.367,0.952-3.369c0.342,0.245,0.684,0.494,1.027,0.738c-0.47,0.786-0.824,1.684-0.801,2.611
		c0.093,1.209,1.343,2.006,2.486,1.938c1.256,0.074,2.714-0.759,2.775-2.126C7.207,37.963,6.811,37.025,6.377,36.139z"/>
	<path fill="#666666" d="M27.318,39.589c0.312,0.294,0.614,0.598,0.917,0.902c-0.294,0.295-0.589,0.589-0.884,0.884
		c-0.291-0.297-0.586-0.592-0.904-0.861C26.751,40.218,27.045,39.914,27.318,39.589z"/>
	<path fill="#666666" d="M28.424,40.492c0.295-0.295,0.59-0.59,0.885-0.884c0.292,0.294,0.586,0.587,0.881,0.879
		c-0.295,0.295-0.575,0.602-0.857,0.91C29.03,41.098,28.727,40.795,28.424,40.492z"/>
	<path fill="#666666" d="M104.108,40.551c0.3-0.306,0.611-0.598,0.929-0.884c0.291,0.297,0.586,0.59,0.878,0.887
		c-0.301,0.298-0.601,0.598-0.897,0.9C104.711,41.157,104.409,40.854,104.108,40.551z"/>
	<path fill="#666666" d="M106.108,40.554c0.292-0.298,0.589-0.593,0.884-0.89c0.291,0.298,0.584,0.592,0.882,0.885
		c-0.294,0.297-0.589,0.592-0.887,0.884C106.695,41.14,106.402,40.846,106.108,40.554z"/>
	<path fill="#666666" d="M11.578,40.711c0.294-0.312,0.595-0.616,0.884-0.931c0.303,0.3,0.604,0.601,0.905,0.904
		c-0.297,0.294-0.59,0.587-0.885,0.882C12.193,41.268,11.898,40.976,11.578,40.711z"/>
	<path fill="#666666" d="M13.553,40.679c0.294-0.295,0.589-0.59,0.882-0.885c0.297,0.295,0.592,0.592,0.888,0.888
		c-0.297,0.292-0.578,0.599-0.864,0.902C14.156,41.283,13.855,40.98,13.553,40.679z"/>
	<path fill="#666666" d="M105.183,42.039c0.268-0.271,0.538-0.541,0.809-0.809c0.276,0.274,0.551,0.55,0.827,0.827
		c-0.238,0.239-0.473,0.485-0.72,0.714h-0.175C105.668,42.534,105.427,42.284,105.183,42.039z"/>
</g>
<g>
	<path fill="#029DD9" d="M89.063,9.275c0.464-0.146,0.958-0.133,1.44-0.133c5.319,0.006,10.636-0.006,15.953,0.006
		c0.748-0.018,1.536,0.155,2.107,0.666c0.988,0.864,1.182,2.48,0.422,3.552c-0.482,0.729-1.352,1.161-2.224,1.123
		c-5.62-0.002-11.24,0.002-16.859-0.002c-1.138,0.026-2.263-0.733-2.58-1.842C86.86,11.291,87.672,9.663,89.063,9.275z"/>
</g>
</svg>
